<?xml version="1.0" standalone="no"?>
<!DOCTYPE svg PUBLIC "-//W3C//DTD SVG 20010904//EN"
 "http://www.w3.org/TR/2001/REC-SVG-20010904/DTD/svg10.dtd">
<svg version="1.0" xmlns="http://www.w3.org/2000/svg"
 width="700.000000pt" height="700.000000pt" viewBox="0 0 700.000000 700.000000"
 preserveAspectRatio="xMidYMid meet">
<metadata>
Created by potrace 1.14, written by Peter Selinger 2001-2017
</metadata>
<g transform="translate(0.000000,700.000000) scale(0.100000,-0.100000)"
fill="#000000" stroke="none">
<path d="M520 5178 l0 -138 885 0 886 0 -3 138 -3 137 -882 0 -883 1 0 -138z"/>
<path d="M4732 5221 l-164 -65 6 -29 c8 -40 78 -186 116 -244 42 -62 114 -137
165 -172 87 -61 122 -76 314 -137 8 -3 -10 -21 -45 -45 -241 -167 -377 -446
-413 -844 -8 -96 -6 -423 3 -475 3 -14 7 -47 11 -74 39 -313 173 -591 358
-745 140 -117 292 -171 492 -177 506 -13 836 347 912 996 13 105 9 466 -5 570
-49 353 -182 628 -372 775 -142 109 -265 149 -495 159 -221 11 -342 53 -463
161 -66 60 -157 195 -207 310 -21 50 -41 92 -44 96 -3 3 -80 -24 -169 -60z
m993 -791 c294 -62 444 -397 439 -985 -1 -123 -10 -276 -19 -320 -3 -11 -7
-37 -10 -57 -34 -248 -146 -448 -292 -525 -78 -41 -150 -56 -258 -56 -325 2
-502 252 -540 763 -6 84 -6 359 0 430 28 331 98 527 228 647 111 102 276 139
452 103z"/>
<path d="M2490 4668 c0 -7 11 -23 24 -37 13 -15 184 -235 381 -491 415 -538
436 -566 527 -682 37 -48 68 -91 68 -94 0 -5 -160 -196 -180 -214 -3 -3 -52
-61 -110 -130 -57 -69 -107 -127 -110 -130 -3 -3 -55 -63 -115 -135 -61 -71
-175 -207 -255 -300 -80 -94 -151 -178 -159 -188 -13 -16 -3 -17 175 -16 l189
0 50 61 c66 80 440 526 468 558 12 14 79 93 147 175 69 83 127 152 130 155 12
11 107 126 128 154 l22 30 0 -567 0 -567 160 0 160 0 0 1215 0 1215 -160 0
-160 0 -2 -645 -3 -645 -62 83 c-35 45 -255 335 -490 644 l-428 562 -197 0
c-147 1 -198 -2 -198 -11z"/>
</g>
</svg>
