<svg width="1095" height="1232" viewBox="0 0 1095 1232" fill="none" xmlns="http://www.w3.org/2000/svg">
<g filter="url(#filter0_dddddd_6_28)">
<path fill-rule="evenodd" clip-rule="evenodd" d="M990.81 360L547.405 104L104 360V872L547.405 1128L990.81 872V360ZM977.82 367.5L547.405 119L116.99 367.5V864.5L547.405 1113L977.82 864.5V367.5Z" fill="#FEFECD"/>
</g>
<g filter="url(#filter1_dddddd_6_28)">
<path d="M618.175 755.125C598.175 755.125 583.112 750.188 572.987 740.312C562.862 730.562 557.8 718.75 557.8 704.875C557.8 691 560.737 676.062 566.612 660.062C572.487 644.188 580.8 627.812 591.55 610.938C602.3 594.188 614.487 578 628.112 562.375C641.737 546.75 657.05 532.5 674.05 519.625C690.925 506.75 707.737 497 724.487 490.375C723.362 489.5 720.987 487.562 717.362 484.562C713.612 481.562 710.987 479.5 709.487 478.375C707.987 477.125 705.612 475.187 702.362 472.562C698.987 469.937 696.487 468.062 694.862 466.937C693.112 465.812 690.8 464.25 687.925 462.25C685.05 460.125 682.737 458.625 680.987 457.75C679.112 456.875 677.05 455.875 674.8 454.75C670.8 452.75 667.05 451.75 663.55 451.75C659.925 451.75 656.925 452.187 654.55 453.062C652.175 453.937 650.612 454.937 649.862 456.062C648.987 457.062 648.237 458 647.612 458.875C646.987 459.75 646.362 460.187 645.737 460.187C644.112 460.187 643.3 459.312 643.3 457.562C643.3 455.812 644.175 453.437 645.925 450.437C647.675 447.437 650.237 444.312 653.612 441.062C656.862 437.687 662.362 434.25 670.112 430.75C677.862 427.25 684.612 425.5 690.362 425.5C711.237 425.5 740.925 447.812 779.425 492.438C791.3 486.812 802.175 484 812.05 484C821.925 484 830.862 488.375 838.862 497.125C846.862 506 850.862 517.312 850.862 531.062C850.862 544.938 845.987 562.125 836.237 582.625C818.237 621.125 794.05 654.375 763.675 682.375C710.8 730.875 662.3 755.125 618.175 755.125ZM591.55 708.25C591.55 719.25 597.55 724.75 609.55 724.75C631.55 724.75 654.112 718.562 677.237 706.188C700.237 693.938 722.05 677.688 742.675 657.438C763.3 637.188 780.425 614.938 794.05 590.688C807.55 566.562 814.3 547.438 814.3 533.312C814.3 526.812 812.675 522.25 809.425 519.625C802.425 519.625 790.925 523.812 774.925 532.188C758.8 540.688 744.675 551.875 732.55 565.75C731.3 567 730.362 567.625 729.737 567.625C728.987 567.625 728.487 567.375 728.237 566.875C727.987 566.5 727.425 565.625 726.55 564.25C725.675 562.875 724.862 561.5 724.112 560.125C722.112 556.25 721.112 551.938 721.112 547.188C721.112 542.562 722.8 537.625 726.175 532.375C729.55 527.125 736.55 520.312 747.175 511.938C733.425 516.812 714.675 531.062 690.925 554.688C667.175 578.312 647.862 600.625 632.987 621.625C618.112 642.75 607.487 660.938 601.112 676.188C594.737 691.562 591.55 702.25 591.55 708.25ZM306.438 758.5L299.688 756.625C283.812 754.25 275.875 749.5 275.875 742.375C275.875 740.375 276.625 738.687 278.125 737.312C295 722.187 317.438 705.875 345.438 688.375C388.188 661.75 436.688 636 490.938 611.125C473.188 601 449.125 584.188 418.75 560.688C378 530.562 352.938 515.5 343.562 515.5C340.312 515.5 337.562 516.375 335.312 518.125C332.938 520 331.625 520.938 331.375 520.938C329.25 520.938 328.188 519.938 328.188 517.938C328.188 516.188 330.312 511.187 334.562 502.937C338.688 494.687 342.25 489.25 345.25 486.625C348.125 484 352.75 482.687 359.125 482.687C365.5 482.687 374 485.812 384.625 492.062C395.25 498.312 406.875 506.125 419.5 515.5C432 525 444.5 534.625 457 544.375C488.625 568.75 509.938 583.188 520.938 587.688C559.438 526.938 579.25 495.5 580.375 493.375C581.375 491.25 582.75 489.5 584.5 488.125C586.125 486.875 587.188 486.25 587.688 486.25L595.75 485.125L602.312 485.5C604.062 485.5 605.312 485.25 606.062 484.75C606.812 484.125 607.625 483.687 608.5 483.437C609.375 483.187 610.125 482.812 610.75 482.312C611.375 481.687 612.375 481.375 613.75 481.375C615 481.375 616.812 482.437 619.188 484.562C621.438 486.562 622.562 488.312 622.562 489.812C622.562 491.312 621.688 493.937 619.938 497.687C618.062 501.437 595 536.25 550.75 602.125H554.312C562.688 602.125 566.875 604.375 566.875 608.875C566.875 613.5 564.812 618.062 560.688 622.562C556.438 627.188 552.188 629.5 547.938 629.5C543.688 629.5 539 629.125 533.875 628.375C510.25 663.25 492.062 690.625 479.312 710.5C493.812 696.875 507.562 690.062 520.562 690.062C526.812 690.062 531.75 692.188 535.375 696.438C539 700.812 540.812 705.75 540.812 711.25C540.812 716.75 539.438 721.25 536.688 724.75C533.812 728.25 531.062 730.688 528.438 732.062C525.812 733.438 524 734.125 523 734.125C522 734.125 521.5 733.625 521.5 732.625L523 728.125C523 726.375 520.312 725.5 514.938 725.5C509.562 725.5 502.062 728.438 492.438 734.312C482.812 740.312 473.375 746.25 464.125 752.125C454.875 758.125 447.938 761.125 443.312 761.125C438.688 761.125 435.688 760.562 434.312 759.438C432.812 758.438 431.5 757.75 430.375 757.375C429.125 757.125 428.125 756.687 427.375 756.062C426.625 755.438 426 754.625 425.5 753.625C425 752.75 424.062 751.75 422.688 750.625C421.312 749.5 420.625 748 420.625 746.125C420.625 744.25 421.125 742.5 422.125 740.875C438 716.875 457.5 686.625 480.625 650.125C449.625 666.25 414.188 686.875 374.312 712C334.438 737.25 312.875 752.125 309.625 756.625C308.875 757.875 307.812 758.5 306.438 758.5ZM386.762 434.687H389.575C392.95 434.687 396.2 435.437 399.325 436.937C402.575 438.437 404.2 440.187 404.2 442.187C404.2 444.062 403.262 445.812 401.387 447.437C399.512 449.062 398.387 450.375 398.012 451.375C397.137 453.875 393.762 456.75 387.887 460C382.137 463.125 377.075 464.875 372.7 465.25C368.325 465.5 360.95 465.875 350.575 466.375C340.075 466.875 324.2 467.5 302.95 468.25C281.7 469 267.012 469.375 258.887 469.375C250.762 469.375 245.95 469.125 244.45 468.625C242.95 468.125 241.262 466.687 239.387 464.312C237.387 461.812 235.637 460.062 234.137 459.062C232.512 457.937 231.7 456.187 231.7 453.812C231.7 451.312 233.262 449.25 236.387 447.625C239.512 445.875 245.262 444.625 253.637 443.875C261.887 443 271.825 442.187 283.45 441.437C294.95 440.687 307.637 439.75 321.512 438.625C349.012 436.25 370.762 434.937 386.762 434.687Z" fill="#FEFECD"/>
</g>
<defs>
<filter id="filter0_dddddd_6_28" x="0.7808" y="0.7808" width="1093.25" height="1230.44" filterUnits="userSpaceOnUse" color-interpolation-filters="sRGB">
<feFlood flood-opacity="0" result="BackgroundImageFix"/>
<feColorMatrix in="SourceAlpha" type="matrix" values="0 0 0 0 0 0 0 0 0 0 0 0 0 0 0 0 0 0 127 0" result="hardAlpha"/>
<feOffset/>
<feGaussianBlur stdDeviation="1.2288"/>
<feColorMatrix type="matrix" values="0 0 0 0 0.996078 0 0 0 0 0.996078 0 0 0 0 0.803922 0 0 0 1 0"/>
<feBlend mode="normal" in2="BackgroundImageFix" result="effect1_dropShadow_6_28"/>
<feColorMatrix in="SourceAlpha" type="matrix" values="0 0 0 0 0 0 0 0 0 0 0 0 0 0 0 0 0 0 127 0" result="hardAlpha"/>
<feOffset/>
<feGaussianBlur stdDeviation="2.4576"/>
<feColorMatrix type="matrix" values="0 0 0 0 0.996078 0 0 0 0 0.996078 0 0 0 0 0.803922 0 0 0 1 0"/>
<feBlend mode="normal" in2="effect1_dropShadow_6_28" result="effect2_dropShadow_6_28"/>
<feColorMatrix in="SourceAlpha" type="matrix" values="0 0 0 0 0 0 0 0 0 0 0 0 0 0 0 0 0 0 127 0" result="hardAlpha"/>
<feOffset/>
<feGaussianBlur stdDeviation="8.6016"/>
<feColorMatrix type="matrix" values="0 0 0 0 0.996078 0 0 0 0 0.996078 0 0 0 0 0.803922 0 0 0 1 0"/>
<feBlend mode="normal" in2="effect2_dropShadow_6_28" result="effect3_dropShadow_6_28"/>
<feColorMatrix in="SourceAlpha" type="matrix" values="0 0 0 0 0 0 0 0 0 0 0 0 0 0 0 0 0 0 127 0" result="hardAlpha"/>
<feOffset/>
<feGaussianBlur stdDeviation="17.2032"/>
<feColorMatrix type="matrix" values="0 0 0 0 0.996078 0 0 0 0 0.996078 0 0 0 0 0.803922 0 0 0 1 0"/>
<feBlend mode="normal" in2="effect3_dropShadow_6_28" result="effect4_dropShadow_6_28"/>
<feColorMatrix in="SourceAlpha" type="matrix" values="0 0 0 0 0 0 0 0 0 0 0 0 0 0 0 0 0 0 127 0" result="hardAlpha"/>
<feOffset/>
<feGaussianBlur stdDeviation="29.4912"/>
<feColorMatrix type="matrix" values="0 0 0 0 0.996078 0 0 0 0 0.996078 0 0 0 0 0.803922 0 0 0 1 0"/>
<feBlend mode="normal" in2="effect4_dropShadow_6_28" result="effect5_dropShadow_6_28"/>
<feColorMatrix in="SourceAlpha" type="matrix" values="0 0 0 0 0 0 0 0 0 0 0 0 0 0 0 0 0 0 127 0" result="hardAlpha"/>
<feOffset/>
<feGaussianBlur stdDeviation="51.6096"/>
<feColorMatrix type="matrix" values="0 0 0 0 0.996078 0 0 0 0 0.996078 0 0 0 0 0.803922 0 0 0 1 0"/>
<feBlend mode="normal" in2="effect5_dropShadow_6_28" result="effect6_dropShadow_6_28"/>
<feBlend mode="normal" in="SourceGraphic" in2="effect6_dropShadow_6_28" result="shape"/>
</filter>
<filter id="filter1_dddddd_6_28" x="192.086" y="385.886" width="698.391" height="414.854" filterUnits="userSpaceOnUse" color-interpolation-filters="sRGB">
<feFlood flood-opacity="0" result="BackgroundImageFix"/>
<feColorMatrix in="SourceAlpha" type="matrix" values="0 0 0 0 0 0 0 0 0 0 0 0 0 0 0 0 0 0 127 0" result="hardAlpha"/>
<feOffset/>
<feGaussianBlur stdDeviation="0.4716"/>
<feColorMatrix type="matrix" values="0 0 0 0 0.996078 0 0 0 0 0.996078 0 0 0 0 0.803922 0 0 0 1 0"/>
<feBlend mode="normal" in2="BackgroundImageFix" result="effect1_dropShadow_6_28"/>
<feColorMatrix in="SourceAlpha" type="matrix" values="0 0 0 0 0 0 0 0 0 0 0 0 0 0 0 0 0 0 127 0" result="hardAlpha"/>
<feOffset/>
<feGaussianBlur stdDeviation="0.9432"/>
<feColorMatrix type="matrix" values="0 0 0 0 0.996078 0 0 0 0 0.996078 0 0 0 0 0.803922 0 0 0 1 0"/>
<feBlend mode="normal" in2="effect1_dropShadow_6_28" result="effect2_dropShadow_6_28"/>
<feColorMatrix in="SourceAlpha" type="matrix" values="0 0 0 0 0 0 0 0 0 0 0 0 0 0 0 0 0 0 127 0" result="hardAlpha"/>
<feOffset/>
<feGaussianBlur stdDeviation="3.3012"/>
<feColorMatrix type="matrix" values="0 0 0 0 0.996078 0 0 0 0 0.996078 0 0 0 0 0.803922 0 0 0 1 0"/>
<feBlend mode="normal" in2="effect2_dropShadow_6_28" result="effect3_dropShadow_6_28"/>
<feColorMatrix in="SourceAlpha" type="matrix" values="0 0 0 0 0 0 0 0 0 0 0 0 0 0 0 0 0 0 127 0" result="hardAlpha"/>
<feOffset/>
<feGaussianBlur stdDeviation="6.6024"/>
<feColorMatrix type="matrix" values="0 0 0 0 0.996078 0 0 0 0 0.996078 0 0 0 0 0.803922 0 0 0 1 0"/>
<feBlend mode="normal" in2="effect3_dropShadow_6_28" result="effect4_dropShadow_6_28"/>
<feColorMatrix in="SourceAlpha" type="matrix" values="0 0 0 0 0 0 0 0 0 0 0 0 0 0 0 0 0 0 127 0" result="hardAlpha"/>
<feOffset/>
<feGaussianBlur stdDeviation="11.3184"/>
<feColorMatrix type="matrix" values="0 0 0 0 0.996078 0 0 0 0 0.996078 0 0 0 0 0.803922 0 0 0 1 0"/>
<feBlend mode="normal" in2="effect4_dropShadow_6_28" result="effect5_dropShadow_6_28"/>
<feColorMatrix in="SourceAlpha" type="matrix" values="0 0 0 0 0 0 0 0 0 0 0 0 0 0 0 0 0 0 127 0" result="hardAlpha"/>
<feOffset/>
<feGaussianBlur stdDeviation="19.8072"/>
<feColorMatrix type="matrix" values="0 0 0 0 0.996078 0 0 0 0 0.996078 0 0 0 0 0.803922 0 0 0 1 0"/>
<feBlend mode="normal" in2="effect5_dropShadow_6_28" result="effect6_dropShadow_6_28"/>
<feBlend mode="normal" in="SourceGraphic" in2="effect6_dropShadow_6_28" result="shape"/>
</filter>
</defs>
</svg>
